<?xml version="1.0" encoding="UTF-8"?>
<!DOCTYPE svg PUBLIC "-//W3C//DTD SVG 1.1//EN" "http://www.w3.org/Graphics/SVG/1.1/DTD/svg11.dtd">
<svg xmlns="http://www.w3.org/2000/svg" xmlns:xlink="http://www.w3.org/1999/xlink" version="1.1" width="2122px" height="1080px" viewBox="-0.5 -0.5 2122 1080" style="background-color: rgb(255, 255, 255);"><defs><clipPath id="mx-clip-25-160-152-26-0"><rect x="25" y="160" width="152" height="26"/></clipPath><clipPath id="mx-clip-25-194-152-26-0"><rect x="25" y="194" width="152" height="26"/></clipPath><clipPath id="mx-clip-245-31-192-26-0"><rect x="245" y="31" width="192" height="26"/></clipPath><clipPath id="mx-clip-245-65-192-26-0"><rect x="245" y="65" width="192" height="26"/></clipPath><clipPath id="mx-clip-245-91-192-26-0"><rect x="245" y="91" width="192" height="26"/></clipPath><clipPath id="mx-clip-245-160-192-34-0"><rect x="245" y="160" width="192" height="34"/></clipPath><clipPath id="mx-clip-245-202-192-92-0"><rect x="245" y="202" width="192" height="92"/></clipPath><clipPath id="mx-clip-245-294-192-40-0"><rect x="245" y="294" width="192" height="40"/></clipPath><clipPath id="mx-clip-245-433-192-26-0"><rect x="245" y="433" width="192" height="26"/></clipPath><clipPath id="mx-clip-245-467-192-130-0"><rect x="245" y="467" width="192" height="130"/></clipPath><clipPath id="mx-clip-5-837-192-26-0"><rect x="5" y="837" width="192" height="26"/></clipPath><clipPath id="mx-clip-5-871-192-30-0"><rect x="5" y="871" width="192" height="30"/></clipPath><clipPath id="mx-clip-245-837-192-26-0"><rect x="245" y="837" width="192" height="26"/></clipPath><clipPath id="mx-clip-245-871-192-210-0"><rect x="245" y="871" width="192" height="210"/></clipPath><clipPath id="mx-clip-965-433-192-26-0"><rect x="965" y="433" width="192" height="26"/></clipPath><clipPath id="mx-clip-965-467-192-30-0"><rect x="965" y="467" width="192" height="30"/></clipPath><clipPath id="mx-clip-965-565-192-26-0"><rect x="965" y="565" width="192" height="26"/></clipPath><clipPath id="mx-clip-965-599-192-30-0"><rect x="965" y="599" width="192" height="30"/></clipPath><clipPath id="mx-clip-1205-565-192-26-0"><rect x="1205" y="565" width="192" height="26"/></clipPath><clipPath id="mx-clip-1205-599-192-30-0"><rect x="1205" y="599" width="192" height="30"/></clipPath><clipPath id="mx-clip-1445-443-192-26-0"><rect x="1445" y="443" width="192" height="26"/></clipPath><clipPath id="mx-clip-1445-477-192-110-0"><rect x="1445" y="477" width="192" height="110"/></clipPath><clipPath id="mx-clip-1445-705-192-26-0"><rect x="1445" y="705" width="192" height="26"/></clipPath><clipPath id="mx-clip-1445-739-192-100-0"><rect x="1445" y="739" width="192" height="100"/></clipPath><clipPath id="mx-clip-1685-705-192-26-0"><rect x="1685" y="705" width="192" height="26"/></clipPath><clipPath id="mx-clip-1685-739-192-30-0"><rect x="1685" y="739" width="192" height="30"/></clipPath><clipPath id="mx-clip-1925-435-192-26-0"><rect x="1925" y="435" width="192" height="26"/></clipPath><clipPath id="mx-clip-1925-469-192-60-0"><rect x="1925" y="469" width="192" height="60"/></clipPath><clipPath id="mx-clip-485-433-192-26-0"><rect x="485" y="433" width="192" height="26"/></clipPath><clipPath id="mx-clip-485-467-192-340-0"><rect x="485" y="467" width="192" height="340"/></clipPath><clipPath id="mx-clip-725-431-192-26-0"><rect x="725" y="431" width="192" height="26"/></clipPath><clipPath id="mx-clip-725-465-192-100-0"><rect x="725" y="465" width="192" height="100"/></clipPath><clipPath id="mx-clip-725-633-192-26-0"><rect x="725" y="633" width="192" height="26"/></clipPath><clipPath id="mx-clip-725-667-192-40-0"><rect x="725" y="667" width="192" height="40"/></clipPath></defs><g><path d="M 101 128.5 L 101 108.6 L 211 108.6 L 211 132 L 341 132 L 341 120.12" fill="none" stroke="#000000" stroke-miterlimit="10" pointer-events="stroke"/><path d="M 341 113.12 L 344.5 120.12 L 337.5 120.12 Z" fill="none" stroke="#000000" stroke-miterlimit="10" pointer-events="all"/><path d="M 21 154.5 L 21 128.5 L 181 128.5 L 181 154.5" fill="#d5e8d4" stroke="#82b366" stroke-miterlimit="10" pointer-events="all"/><path d="M 21 154.5 L 21 214.5 L 181 214.5 L 181 154.5" fill="none" stroke="#82b366" stroke-miterlimit="10" pointer-events="none"/><path d="M 21 154.5 L 181 154.5" fill="none" stroke="#82b366" stroke-miterlimit="10" pointer-events="none"/><g fill="#000000" font-family="Helvetica" font-weight="bold" text-anchor="middle" font-size="12px"><text x="100.5" y="146">SMO.UI</text></g><g fill="#000000" font-family="Helvetica" clip-path="url(#mx-clip-25-160-152-26-0)" font-size="12px"><text x="26.5" y="172">+</text></g><path d="M 21 184.5 L 181 184.5" fill="none" stroke="#000000" stroke-miterlimit="10" pointer-events="none"/><g fill="#000000" font-family="Helvetica" clip-path="url(#mx-clip-25-194-152-26-0)" font-size="12px"><text x="26.5" y="206">+</text></g><path d="M 241 26 L 241 0 L 441 0 L 441 26" fill="#d5e8d4" stroke="#82b366" stroke-miterlimit="10" pointer-events="none"/><path d="M 241 26 L 241 112 L 441 112 L 441 26" fill="none" stroke="#82b366" stroke-miterlimit="10" pointer-events="none"/><path d="M 241 26 L 441 26" fill="none" stroke="#82b366" stroke-miterlimit="10" pointer-events="none"/><g fill="#000000" font-family="Helvetica" font-weight="bold" text-anchor="middle" font-size="12px"><text x="340.5" y="17.5">SMO</text></g><g fill="#000000" font-family="Helvetica" clip-path="url(#mx-clip-245-31-192-26-0)" font-size="12px"><text x="246.5" y="43.5">+</text></g><path d="M 241 56 L 441 56" fill="none" stroke="#000000" stroke-miterlimit="10" pointer-events="none"/><g fill="#000000" font-family="Helvetica" clip-path="url(#mx-clip-245-65-192-26-0)" font-size="12px"><text x="246.5" y="77.5">- process.vi</text></g><g fill="#000000" font-family="Helvetica" font-style="italic" clip-path="url(#mx-clip-245-91-192-26-0)" font-size="12px"><text x="246.5" y="103.5">- enumerateStaticDependencies</text></g><path d="M 341 129 L 341 109 L 341 132 L 341 120.12" fill="none" stroke="#000000" stroke-miterlimit="10" pointer-events="none"/><path d="M 341 113.12 L 344.5 120.12 L 337.5 120.12 Z" fill="none" stroke="#000000" stroke-miterlimit="10" pointer-events="none"/><path d="M 241 155 L 241 129 L 441 129 L 441 155" fill="#ffe6cc" stroke="#d79b00" stroke-miterlimit="10" pointer-events="none"/><path d="M 241 155 L 241 329 L 441 329 L 441 155" fill="none" stroke="#d79b00" stroke-miterlimit="10" pointer-events="none"/><path d="M 241 155 L 441 155" fill="none" stroke="#d79b00" stroke-miterlimit="10" pointer-events="none"/><g fill="#000000" font-family="Helvetica" font-weight="bold" text-anchor="middle" font-size="12px"><text x="340.5" y="146.5">Instrument</text></g><g fill="#000000" font-family="Helvetica" clip-path="url(#mx-clip-245-160-192-34-0)" font-size="12px"><text x="246.5" y="172.5">+</text></g><path d="M 241 193 L 441 193" fill="none" stroke="#000000" stroke-miterlimit="10" pointer-events="none"/><g fill="#000000" font-family="Helvetica" font-style="italic" clip-path="url(#mx-clip-245-202-192-92-0)" font-size="12px"><text x="246.5" y="214.5">- Open Instrument.vi</text><text x="246.5" y="228.5">- Close Instrument.vi</text><text x="246.5" y="242.5">- Handle Command.vi</text><text x="246.5" y="256.5">- Get Public API.vi</text><text x="246.5" y="270.5">- getAll.vi</text></g><g fill="#000000" font-family="Helvetica" clip-path="url(#mx-clip-245-294-192-40-0)" font-size="12px"><text x="246.5" y="306.5">- process.vi</text><text x="246.5" y="320.5">- enumerateStaticDependencies</text></g><path d="M 341 402 L 341 337.12" fill="none" stroke="#000000" stroke-miterlimit="10" pointer-events="none"/><path d="M 341 330.12 L 344.5 337.12 L 337.5 337.12 Z" fill="none" stroke="#000000" stroke-miterlimit="10" pointer-events="none"/><path d="M 241 428 L 241 402 L 441 402 L 441 428" fill="#ffe6cc" stroke="#d79b00" stroke-miterlimit="10" pointer-events="none"/><path d="M 241 428 L 241 592 L 441 592 L 441 428" fill="none" stroke="#d79b00" stroke-miterlimit="10" pointer-events="none"/><path d="M 241 428 L 441 428" fill="none" stroke="#d79b00" stroke-miterlimit="10" pointer-events="none"/><g fill="#000000" font-family="Helvetica" font-weight="bold" text-anchor="middle" font-size="12px"><text x="340.5" y="419.5">Instrument.Cryostat (API)</text></g><g fill="#000000" font-family="Helvetica" clip-path="url(#mx-clip-245-433-192-26-0)" font-size="12px"><text x="246.5" y="445.5">+</text></g><path d="M 241 458 L 441 458" fill="none" stroke="#000000" stroke-miterlimit="10" pointer-events="none"/><g fill="#000000" font-family="Helvetica" font-style="italic" clip-path="url(#mx-clip-245-467-192-130-0)" font-size="12px"><text x="246.5" y="479.5">+ Get Magnet.vi</text><text x="246.5" y="493.5">+ Set Magnet.vi</text><text x="246.5" y="507.5">+ Get Temperature.vi</text><text x="246.5" y="521.5">+ Set Temperature.vi</text><text x="246.5" y="535.5">+ Get Angle.vi</text><text x="246.5" y="549.5">+ Set Angle.vi</text><text x="246.5" y="563.5">+ Get Helium Level.vi</text><text x="246.5" y="577.5">+ Get Nitrogen Level.vi</text></g><path d="M 100.5 806 L 100.6 510.2 L 101 510.2 L 101 222.62" fill="none" stroke="#000000" stroke-miterlimit="10" pointer-events="none"/><path d="M 101 215.62 L 104.5 222.62 L 97.5 222.62 Z" fill="none" stroke="#000000" stroke-miterlimit="10" pointer-events="none"/><path d="M 0.5 832 L 0.5 806 L 200.5 806 L 200.5 832" fill="#f8cecc" stroke="#b85450" stroke-miterlimit="10" pointer-events="none"/><path d="M 0.5 832 L 0.5 896 L 200.5 896 L 200.5 832" fill="none" stroke="#b85450" stroke-miterlimit="10" pointer-events="none"/><path d="M 0.5 832 L 200.5 832" fill="none" stroke="#b85450" stroke-miterlimit="10" pointer-events="none"/><g fill="#000000" font-family="Helvetica" font-weight="bold" text-anchor="middle" font-size="12px"><text x="100" y="823.5">Instrument.CryostatX UI</text></g><g fill="#000000" font-family="Helvetica" clip-path="url(#mx-clip-5-837-192-26-0)" font-size="12px"><text x="6" y="849.5">+</text></g><path d="M 0.5 862 L 200.5 862" fill="none" stroke="#000000" stroke-miterlimit="10" pointer-events="none"/><g fill="#000000" font-family="Helvetica" font-style="italic" clip-path="url(#mx-clip-5-871-192-30-0)" font-size="12px"><text x="6" y="883.5">+</text></g><path d="M 340.5 806 L 340.6 699 L 341 699 L 341 600.12" fill="none" stroke="#000000" stroke-miterlimit="10" pointer-events="none"/><path d="M 341 593.12 L 344.5 600.12 L 337.5 600.12 Z" fill="none" stroke="#000000" stroke-miterlimit="10" pointer-events="none"/><path d="M 240.5 832 L 240.5 806 L 440.5 806 L 440.5 832" fill="#f8cecc" stroke="#b85450" stroke-miterlimit="10" pointer-events="none"/><path d="M 240.5 832 L 240.5 1076 L 440.5 1076 L 440.5 832" fill="none" stroke="#b85450" stroke-miterlimit="10" pointer-events="none"/><path d="M 240.5 832 L 440.5 832" fill="none" stroke="#b85450" stroke-miterlimit="10" pointer-events="none"/><g fill="#000000" font-family="Helvetica" font-weight="bold" text-anchor="middle" font-size="12px"><text x="340" y="823.5">Instrument.CryostatX</text></g><g fill="#000000" font-family="Helvetica" clip-path="url(#mx-clip-245-837-192-26-0)" font-size="12px"><text x="246" y="849.5">+</text></g><path d="M 240.5 862 L 440.5 862" fill="none" stroke="#000000" stroke-miterlimit="10" pointer-events="none"/><g fill="#000000" font-family="Helvetica" clip-path="url(#mx-clip-245-871-192-210-0)" font-size="12px"><text x="246" y="883.5">- process.vi (optional)</text><text x="246" y="897.5">- Open Instrument.vi</text><text x="246" y="911.5">- Close Instrument.vi</text><text x="246" y="925.5">- Handle Command.vi</text><text x="246" y="939.5">- Get Public API.vi</text><text x="246" y="953.5">- getAll.vi</text><text x="246" y="967.5">+ Get Magnet.vi</text><text x="246" y="981.5">+ Set Magnet.vi</text><text x="246" y="995.5">+ Get Temperature.vi</text><text x="246" y="1009.5">+ Set Temperature.vi</text><text x="246" y="1023.5">+ Get Angle.vi</text><text x="246" y="1037.5">+ Set Angle.vi</text><text x="246" y="1051.5">+ Get Helium Level.vi</text><text x="246" y="1065.5">+ Get Nitrogen Level.vi</text></g><path d="M 1061 402 L 1061 172 L 448.99 172" fill="none" stroke="#000000" stroke-miterlimit="10" pointer-events="none"/><path d="M 441.99 172 L 445.49 169.94 L 448.99 172 L 445.49 174.06 Z" fill="none" stroke="#000000" stroke-miterlimit="10" pointer-events="none"/><path d="M 961 428 L 961 402 L 1161 402 L 1161 428" fill="#ffe6cc" stroke="#d79b00" stroke-miterlimit="10" pointer-events="none"/><path d="M 961 428 L 961 492 L 1161 492 L 1161 428" fill="none" stroke="#d79b00" stroke-miterlimit="10" pointer-events="none"/><path d="M 961 428 L 1161 428" fill="none" stroke="#d79b00" stroke-miterlimit="10" pointer-events="none"/><g fill="#000000" font-family="Helvetica" font-weight="bold" text-anchor="middle" font-size="12px"><text x="1060.5" y="419.5">Logger</text></g><g fill="#000000" font-family="Helvetica" clip-path="url(#mx-clip-965-433-192-26-0)" font-size="12px"><text x="966.5" y="445.5">+</text></g><path d="M 961 458 L 1161 458" fill="none" stroke="#000000" stroke-miterlimit="10" pointer-events="none"/><g fill="#000000" font-family="Helvetica" font-style="italic" clip-path="url(#mx-clip-965-467-192-30-0)" font-size="12px"><text x="966.5" y="479.5">+</text></g><path d="M 1061 534 L 1061 500.12" fill="none" stroke="#000000" stroke-miterlimit="10" pointer-events="none"/><path d="M 1061 493.12 L 1064.5 500.12 L 1057.5 500.12 Z" fill="none" stroke="#000000" stroke-miterlimit="10" pointer-events="none"/><path d="M 961 560 L 961 534 L 1161 534 L 1161 560" fill="#ffe6cc" stroke="#d79b00" stroke-miterlimit="10" pointer-events="none"/><path d="M 961 560 L 961 624 L 1161 624 L 1161 560" fill="none" stroke="#d79b00" stroke-miterlimit="10" pointer-events="none"/><path d="M 961 560 L 1161 560" fill="none" stroke="#d79b00" stroke-miterlimit="10" pointer-events="none"/><g fill="#000000" font-family="Helvetica" font-weight="bold" text-anchor="middle" font-size="12px"><text x="1060.5" y="551.5">Logger.Error</text></g><g fill="#000000" font-family="Helvetica" clip-path="url(#mx-clip-965-565-192-26-0)" font-size="12px"><text x="966.5" y="577.5">+</text></g><path d="M 961 590 L 1161 590" fill="none" stroke="#000000" stroke-miterlimit="10" pointer-events="none"/><g fill="#000000" font-family="Helvetica" font-style="italic" clip-path="url(#mx-clip-965-599-192-30-0)" font-size="12px"><text x="966.5" y="611.5">+</text></g><path d="M 1301 534 L 1301 513 L 1061 513 L 1061 500.12" fill="none" stroke="#000000" stroke-miterlimit="10" pointer-events="none"/><path d="M 1061 493.12 L 1064.5 500.12 L 1057.5 500.12 Z" fill="none" stroke="#000000" stroke-miterlimit="10" pointer-events="none"/><path d="M 1201 560 L 1201 534 L 1401 534 L 1401 560" fill="#ffe6cc" stroke="#d79b00" stroke-miterlimit="10" pointer-events="none"/><path d="M 1201 560 L 1201 624 L 1401 624 L 1401 560" fill="none" stroke="#d79b00" stroke-miterlimit="10" pointer-events="none"/><path d="M 1201 560 L 1401 560" fill="none" stroke="#d79b00" stroke-miterlimit="10" pointer-events="none"/><g fill="#000000" font-family="Helvetica" font-weight="bold" text-anchor="middle" font-size="12px"><text x="1300.5" y="551.5">Logger.DSC</text></g><g fill="#000000" font-family="Helvetica" clip-path="url(#mx-clip-1205-565-192-26-0)" font-size="12px"><text x="1206.5" y="577.5">+</text></g><path d="M 1201 590 L 1401 590" fill="none" stroke="#000000" stroke-miterlimit="10" pointer-events="none"/><g fill="#000000" font-family="Helvetica" font-style="italic" clip-path="url(#mx-clip-1205-599-192-30-0)" font-size="12px"><text x="1206.5" y="611.5">+</text></g><path d="M 1541 412 L 1541 172 L 448.99 172" fill="none" stroke="#000000" stroke-miterlimit="10" pointer-events="none"/><path d="M 441.99 172 L 445.49 169.94 L 448.99 172 L 445.49 174.06 Z" fill="none" stroke="#000000" stroke-miterlimit="10" pointer-events="none"/><path d="M 1441 438 L 1441 412 L 1641 412 L 1641 438" fill="#ffe6cc" stroke="#d79b00" stroke-miterlimit="10" pointer-events="none"/><path d="M 1441 438 L 1441 582 L 1641 582 L 1641 438" fill="none" stroke="#d79b00" stroke-miterlimit="10" pointer-events="none"/><path d="M 1441 438 L 1641 438" fill="none" stroke="#d79b00" stroke-miterlimit="10" pointer-events="none"/><g fill="#000000" font-family="Helvetica" font-weight="bold" text-anchor="middle" font-size="12px"><text x="1540.5" y="429.5">RemoteControl</text></g><g fill="#000000" font-family="Helvetica" clip-path="url(#mx-clip-1445-443-192-26-0)" font-size="12px"><text x="1446.5" y="455.5">+ Client.vi</text></g><path d="M 1441 468 L 1641 468" fill="none" stroke="#000000" stroke-miterlimit="10" pointer-events="none"/><g fill="#000000" font-family="Helvetica" font-style="italic" clip-path="url(#mx-clip-1445-477-192-110-0)" font-size="12px"><text x="1446.5" y="489.5">- Connection Monitor - Start.vi</text><text x="1446.5" y="503.5">- Connection Monitor.vi</text><text x="1446.5" y="517.5">- Connection Monitor - Stop.vi</text><text x="1446.5" y="531.5">- Open Server Connection.vi</text><text x="1446.5" y="545.5">- Send Message.vi</text><text x="1446.5" y="559.5">- Read Message.vi</text></g><path d="M 1541 674 L 1541 590.12" fill="none" stroke="#000000" stroke-miterlimit="10" pointer-events="none"/><path d="M 1541 583.12 L 1544.5 590.12 L 1537.5 590.12 Z" fill="none" stroke="#000000" stroke-miterlimit="10" pointer-events="none"/><path d="M 1441 700 L 1441 674 L 1641 674 L 1641 700" fill="#ffe6cc" stroke="#d79b00" stroke-miterlimit="10" pointer-events="none"/><path d="M 1441 700 L 1441 834 L 1641 834 L 1641 700" fill="none" stroke="#d79b00" stroke-miterlimit="10" pointer-events="none"/><path d="M 1441 700 L 1641 700" fill="none" stroke="#d79b00" stroke-miterlimit="10" pointer-events="none"/><g fill="#000000" font-family="Helvetica" font-weight="bold" text-anchor="middle" font-size="12px"><text x="1540.5" y="691.5">RemoteControl.STM</text></g><g fill="#000000" font-family="Helvetica" clip-path="url(#mx-clip-1445-705-192-26-0)" font-size="12px"><text x="1446.5" y="717.5">+</text></g><path d="M 1441 730 L 1641 730" fill="none" stroke="#000000" stroke-miterlimit="10" pointer-events="none"/><g fill="#000000" font-family="Helvetica" clip-path="url(#mx-clip-1445-739-192-100-0)" font-size="12px"><text x="1446.5" y="751.5">- Connection Monitor - Start.vi</text><text x="1446.5" y="765.5">- Connection Monitor.vi</text><text x="1446.5" y="779.5">- Connection Monitor - Stop.vi</text><text x="1446.5" y="793.5">- Open Server Connection.vi</text><text x="1446.5" y="807.5">- Send Message.vi</text><text x="1446.5" y="821.5">- Read Message.vi</text></g><path d="M 1781 674 L 1781 628 L 1541 628 L 1541 590.12" fill="none" stroke="#000000" stroke-miterlimit="10" pointer-events="none"/><path d="M 1541 583.12 L 1544.5 590.12 L 1537.5 590.12 Z" fill="none" stroke="#000000" stroke-miterlimit="10" pointer-events="none"/><path d="M 1681 700 L 1681 674 L 1881 674 L 1881 700" fill="#ffe6cc" stroke="#d79b00" stroke-miterlimit="10" pointer-events="none"/><path d="M 1681 700 L 1681 764 L 1881 764 L 1881 700" fill="none" stroke="#d79b00" stroke-miterlimit="10" pointer-events="none"/><path d="M 1681 700 L 1881 700" fill="none" stroke="#d79b00" stroke-miterlimit="10" pointer-events="none"/><g fill="#000000" font-family="Helvetica" font-weight="bold" text-anchor="middle" font-size="12px"><text x="1780.5" y="691.5">RemoteControl.ZMQ</text></g><g fill="#000000" font-family="Helvetica" clip-path="url(#mx-clip-1685-705-192-26-0)" font-size="12px"><text x="1686.5" y="717.5">+</text></g><path d="M 1681 730 L 1881 730" fill="none" stroke="#000000" stroke-miterlimit="10" pointer-events="none"/><g fill="#000000" font-family="Helvetica" font-style="italic" clip-path="url(#mx-clip-1685-739-192-30-0)" font-size="12px"><text x="1686.5" y="751.5">+</text></g><path d="M 2021 404 L 2021 172 L 448.99 172" fill="none" stroke="#000000" stroke-miterlimit="10" pointer-events="none"/><path d="M 441.99 172 L 445.49 169.94 L 448.99 172 L 445.49 174.06 Z" fill="none" stroke="#000000" stroke-miterlimit="10" pointer-events="none"/><path d="M 1921 430 L 1921 404 L 2121 404 L 2121 430" fill="#ffe6cc" stroke="#d79b00" stroke-miterlimit="10" pointer-events="none"/><path d="M 1921 430 L 1921 524 L 2121 524 L 2121 430" fill="none" stroke="#d79b00" stroke-miterlimit="10" pointer-events="none"/><path d="M 1921 430 L 2121 430" fill="none" stroke="#d79b00" stroke-miterlimit="10" pointer-events="none"/><g fill="#000000" font-family="Helvetica" font-weight="bold" text-anchor="middle" font-size="12px"><text x="2020.5" y="421.5">Configuration</text></g><g fill="#000000" font-family="Helvetica" clip-path="url(#mx-clip-1925-435-192-26-0)" font-size="12px"><text x="1926.5" y="447.5">+</text></g><path d="M 1921 460 L 2121 460" fill="none" stroke="#000000" stroke-miterlimit="10" pointer-events="none"/><g fill="#000000" font-family="Helvetica" clip-path="url(#mx-clip-1925-469-192-60-0)" font-size="12px"><text x="1926.5" y="481.5">+ Write Path</text><text x="1926.5" y="495.5">+ Write Configuration</text><text x="1926.5" y="509.5">+ Read Configuration</text></g><path d="M 581 402 L 581 365.6 L 341 365.6 L 341 337.12" fill="none" stroke="#000000" stroke-miterlimit="10" pointer-events="none"/><path d="M 341 330.12 L 344.5 337.12 L 337.5 337.12 Z" fill="none" stroke="#000000" stroke-miterlimit="10" pointer-events="none"/><path d="M 481 428 L 481 402 L 681 402 L 681 428" fill="#ffe6cc" stroke="#d79b00" stroke-miterlimit="10" pointer-events="none"/><path d="M 481 428 L 481 802 L 681 802 L 681 428" fill="none" stroke="#d79b00" stroke-miterlimit="10" pointer-events="none"/><path d="M 481 428 L 681 428" fill="none" stroke="#d79b00" stroke-miterlimit="10" pointer-events="none"/><g fill="#000000" font-family="Helvetica" font-weight="bold" text-anchor="middle" font-size="12px"><text x="580.5" y="419.5">Instrument.Lockin (API)</text></g><g fill="#000000" font-family="Helvetica" clip-path="url(#mx-clip-485-433-192-26-0)" font-size="12px"><text x="486.5" y="445.5">+</text></g><path d="M 481 458 L 681 458" fill="none" stroke="#000000" stroke-miterlimit="10" pointer-events="none"/><g fill="#000000" font-family="Helvetica" font-style="italic" clip-path="url(#mx-clip-485-467-192-340-0)" font-size="12px"><text x="486.5" y="479.5">+ Get IV mode</text><text x="486.5" y="493.5">+ Get AO config</text><text x="486.5" y="507.5">+ Get REF config</text><text x="486.5" y="521.5">+ Get REF filter</text><text x="486.5" y="535.5">+ Get Results</text><text x="486.5" y="549.5">+ Get Sampling</text><text x="486.5" y="563.5">+ Get Gain</text><text x="486.5" y="577.5">+ Get AO (wfm)</text><text x="486.5" y="591.5">+ Get AI (wfm)</text><text x="486.5" y="605.5">+ Set Sampling</text><text x="486.5" y="619.5">+ Set Gain</text><text x="486.5" y="633.5">+ Set AO</text><text x="486.5" y="647.5">+ Set AO amplitude</text><text x="486.5" y="661.5">+ Set AO DC</text><text x="486.5" y="675.5">+ Set AO frequency</text><text x="486.5" y="689.5">+ Set AO phase</text><text x="486.5" y="703.5">+ Set REF</text><text x="486.5" y="717.5">+ Set REF frequency</text><text x="486.5" y="731.5">+ Set REF phase</text><text x="486.5" y="745.5">+ Set REF filter</text><text x="486.5" y="759.5">+ Set IV mode</text><text x="486.5" y="773.5">+ Trigger</text><text x="486.5" y="787.5">+ Reset</text></g><path d="M 821 400 L 821 364.6 L 341 364.6 L 341 337.12" fill="none" stroke="#000000" stroke-miterlimit="10" pointer-events="none"/><path d="M 341 330.12 L 344.5 337.12 L 337.5 337.12 Z" fill="none" stroke="#000000" stroke-miterlimit="10" pointer-events="none"/><path d="M 721 426 L 721 400 L 921 400 L 921 426" fill="#ffe6cc" stroke="#d79b00" stroke-miterlimit="10" pointer-events="none"/><path d="M 721 426 L 721 560 L 921 560 L 921 426" fill="none" stroke="#d79b00" stroke-miterlimit="10" pointer-events="none"/><path d="M 721 426 L 921 426" fill="none" stroke="#d79b00" stroke-miterlimit="10" pointer-events="none"/><g fill="#000000" font-family="Helvetica" font-weight="bold" text-anchor="middle" font-size="12px"><text x="820.5" y="417.5">Instrument.VNA (API)</text></g><g fill="#000000" font-family="Helvetica" clip-path="url(#mx-clip-725-431-192-26-0)" font-size="12px"><text x="726.5" y="443.5">+</text></g><path d="M 721 456 L 921 456" fill="none" stroke="#000000" stroke-miterlimit="10" pointer-events="none"/><g fill="#000000" font-family="Helvetica" font-style="italic" clip-path="url(#mx-clip-725-465-192-100-0)" font-size="12px"><text x="726.5" y="477.5">+ Set Power</text><text x="726.5" y="491.5">+ Set Measurement (S11 etc)</text><text x="726.5" y="505.5">+ Set Format (Log Mag, Phase)</text><text x="726.5" y="519.5">+ Set Bias</text><text x="726.5" y="533.5">+ Set Sweep</text><text x="726.5" y="547.5">+ Set Average</text></g><path d="M 721 628 L 721 602 L 921 602 L 921 628" fill="#ffe6cc" stroke="#d79b00" stroke-miterlimit="10" pointer-events="none"/><path d="M 721 628 L 721 702 L 921 702 L 921 628" fill="none" stroke="#d79b00" stroke-miterlimit="10" pointer-events="none"/><path d="M 721 628 L 921 628" fill="none" stroke="#d79b00" stroke-miterlimit="10" pointer-events="none"/><g fill="#000000" font-family="Helvetica" font-weight="bold" text-anchor="middle" font-size="12px"><text x="820.5" y="619.5">Instrument.VSource (API)</text></g><g fill="#000000" font-family="Helvetica" clip-path="url(#mx-clip-725-633-192-26-0)" font-size="12px"><text x="726.5" y="645.5">+</text></g><path d="M 721 658 L 921 658" fill="none" stroke="#000000" stroke-miterlimit="10" pointer-events="none"/><g fill="#000000" font-family="Helvetica" font-style="italic" clip-path="url(#mx-clip-725-667-192-40-0)" font-size="12px"><text x="726.5" y="679.5">+ Set Bias Voltage</text><text x="726.5" y="693.5">+ Get Bias Voltage</text></g></g></svg>